# xmcd
#
# Track frame offsets:
#   150
#   17224
#   32001
#   47504
#   61823
#   76215
#   81643
#   99728
#   114517
#   128102
#   150583
#   164659
#   184361
#   199239
#   213911
#   227663
#   248049
#
# Disc length: 3637 seconds
#
# Revision: 0
# Processed by: cddbd v1.5.2PL0 Copyright (c) Steve Scherf et al.
# Submitted via: GXTranscoder 2.0.1939
#
DISCID=e40e3311
DTITLE=halfway crooks - raise the bar
DYEAR=2007
DGENRE=Dance
TTITLE0=outta luck
TTITLE1=all comes down
TTITLE2=frik ho
TTITLE3=oh man
TTITLE4=footprints in the dust
TTITLE5=tonight is mine
TTITLE6=no worries
TTITLE7=bloodshot eyes
TTITLE8=connection
TTITLE9=in love with myself
TTITLE10=bosco
TTITLE11=play the game
TTITLE12=safety net
TTITLE13=slow down
TTITLE14=hold me down
TTITLE15=take it from me
TTITLE16=absalom
EXTD=
EXTT0=
EXTT1=
EXTT2=
EXTT3=
EXTT4=
EXTT5=
EXTT6=
EXTT7=
EXTT8=
EXTT9=
EXTT10=
EXTT11=
EXTT12=
EXTT13=
EXTT14=
EXTT15=
EXTT16=
PLAYORDER=
